<?xml version="1.0" standalone="yes"?>

<svg version="1.1" viewBox="0.0 0.0 169.0 145.0" fill="none" stroke="none" stroke-linecap="square" stroke-miterlimit="10" xmlns="http://www.w3.org/2000/svg" xmlns:xlink="http://www.w3.org/1999/xlink"><clipPath id="p.0"><path d="m0 0l169.0 0l0 145.0l-169.0 0l0 -145.0z" clip-rule="nonzero"></path></clipPath><g clip-path="url(#p.0)"><path fill="#000000" fill-opacity="0.0" d="m0 0l169.70341 0l0 145.58005l-169.70341 0z" fill-rule="nonzero"></path><path fill="#000000" fill-opacity="0.0" d="m54.497692 30.02366l48.094486 48.062996l-48.818897 48.7874l-48.094486 -48.06299z" fill-rule="nonzero"></path><path stroke="#000000" stroke-width="8.0" stroke-linejoin="round" stroke-linecap="butt" d="m54.497692 30.02366l48.094486 48.062996l-48.818897 48.7874l-48.094486 -48.06299z" fill-rule="nonzero"></path><path fill="#000000" fill-opacity="0.0" d="m82.79663 98.798904l40.283463 -40.40945l40.944885 41.03937l-40.28347 40.409447z" fill-rule="nonzero"></path><path stroke="#000000" stroke-width="8.0" stroke-linejoin="round" stroke-linecap="butt" d="m82.79663 98.798904l40.283463 -40.40945l40.944885 41.03937l-40.28347 40.409447z" fill-rule="nonzero"></path><path fill="#000000" fill-opacity="0.0" d="m103.452705 5.742767l35.71653 35.811024l-36.25197 36.346455l-35.71653 -35.811024z" fill-rule="nonzero"></path><path stroke="#000000" stroke-width="8.0" stroke-linejoin="round" stroke-linecap="butt" d="m103.452705 5.742767l35.71653 35.811024l-36.25197 36.346455l-35.71653 -35.811024z" fill-rule="nonzero"></path></g></svg>

